<svg width="21" height="23" viewBox="0 0 21 23" fill="none" xmlns="http://www.w3.org/2000/svg">
<path d="M19.1538 4.4386L12.3462 0.518797C11.1923 -0.172932 9.80769 -0.172932 8.76923 0.518797L1.84615 4.4386C0.692308 5.13033 0 6.28321 0 7.55138V15.5063C0 16.7744 0.692308 18.0426 1.84615 18.619L8.65385 22.5388C9.23077 22.8847 9.80769 23 10.5 23C11.1923 23 11.7692 22.8847 12.3462 22.5388L19.1538 18.619C20.3077 17.9273 21 16.7744 21 15.5063V7.66667C21 6.3985 20.3077 5.13033 19.1538 4.4386ZM9.57692 2.01754C9.92308 1.90226 10.1538 1.78697 10.5 1.78697C10.8462 1.78697 11.1923 1.90226 11.4231 2.01754L18 5.82205L15.2308 7.55138L8.07692 2.82456L9.57692 2.01754ZM6.46154 3.86216L13.7308 8.58897L10.5 10.5489L2.65385 5.93734L6.46154 3.86216ZM2.65385 17.2356C2.07692 16.8897 1.73077 16.3133 1.73077 15.6216V7.66667C1.73077 7.55138 1.73077 7.55138 1.73077 7.43609L9.57692 12.0476V21.1554C9.57692 21.1554 9.57692 21.1554 9.46154 21.1554L2.65385 17.2356ZM11.4231 21.1554L11.3077 12.0476L14.1923 10.203V19.4261L11.4231 21.1554ZM19.2692 15.5063C19.2692 16.198 18.9231 16.7744 18.3462 17.1203L16.0385 18.3885V9.16541L19.1538 7.20551C19.1538 7.3208 19.2692 7.55138 19.2692 7.66667V15.5063Z" fill="#5C4868"/>
</svg>
