<svg width="359" height="102" viewBox="0 0 359 102" fill="none" xmlns="http://www.w3.org/2000/svg">
<g style="mix-blend-mode:overlay">
<mask id="path-1-outside-1_511_662" maskUnits="userSpaceOnUse" x="0" y="0" width="359" height="102" fill="black">
<rect fill="white" width="359" height="102"/>
<path d="M45.2078 96.7493C38.5903 96.7493 32.5867 95.6326 27.1972 93.3991C21.8077 91.2377 17.1345 88.0677 13.1776 83.889C9.28896 79.7824 6.2872 74.8833 4.17232 69.1916C2.05744 63.4279 1 57.0158 1 49.9553C1 42.6787 2.09155 36.0865 4.27465 30.1787C6.45775 24.2709 9.56185 19.1916 13.5869 14.9409C17.6803 10.6902 22.524 7.4121 28.1182 5.10663C33.7806 2.80115 40.057 1.64841 46.9475 1.64841C54.9976 1.64841 62.0245 3.3415 68.028 6.72766C74.0998 10.0418 78.8071 14.7248 82.15 20.7767C85.4928 26.7565 87.1643 33.817 87.1643 41.9582C87.1643 48.2262 86.3115 53.6657 84.6059 58.2767C82.9686 62.8156 80.6491 66.3458 77.6473 68.8674C74.7138 71.317 71.2345 72.5418 67.2094 72.5418C63.116 72.5418 59.9096 71.353 57.5901 68.9755C55.2705 66.5259 54.0766 63.1398 54.0084 58.817L57.0784 57.7363C55.3729 62.6354 52.951 66.3458 49.8128 68.8674C46.7428 71.317 43.3317 72.5418 39.5795 72.5418C34.19 72.5418 29.9602 70.7406 26.8902 67.1383C23.8884 63.536 22.3876 58.6009 22.3876 52.3328C22.3876 47.0735 23.3427 42.3905 25.2529 38.2839C27.1631 34.1772 29.7555 30.9352 33.0302 28.5576C36.3731 26.1801 40.1253 24.9914 44.2868 24.9914C47.9708 24.9914 50.9725 25.964 53.2921 27.9092C55.6116 29.7824 57.1807 32.5562 57.9994 36.2305H56.1574L57.1807 30.3948C57.7947 27.2968 59.5685 25.7478 62.502 25.7478C64.0712 25.7478 65.2309 26.2161 65.9814 27.1527C66.7318 28.0893 66.9365 29.4582 66.5954 31.2594L63.2184 52.1167C63.0137 53.2694 62.8432 54.3501 62.7067 55.3588C62.6385 56.2954 62.6044 57.1599 62.6044 57.9524C62.6044 60.1859 63.0478 61.8429 63.9347 62.9236C64.8216 64.0043 66.1519 64.5447 67.9257 64.5447C70.1088 64.5447 72.0531 63.6081 73.7587 61.7349C75.4642 59.8617 76.7945 57.232 77.7496 53.8458C78.7047 50.3876 79.1823 46.4251 79.1823 41.9582C79.1823 35.2579 77.852 29.5303 75.1913 24.7752C72.5989 20.0202 68.8808 16.3818 64.037 13.8602C59.2615 11.2666 53.5309 9.96974 46.8451 9.96974C39.4089 9.96974 32.9279 11.6268 27.4019 14.9409C21.8759 18.183 17.5779 22.7939 14.5079 28.7738C11.438 34.7536 9.90296 41.8141 9.90296 49.9553C9.90296 57.9524 11.3356 64.8329 14.2009 70.5965C17.1345 76.3602 21.2278 80.755 26.4809 83.781C31.8022 86.879 38.0445 88.4279 45.2078 88.4279C49.7104 88.4279 53.8038 87.8516 57.4877 86.6988C61.2399 85.5461 64.5487 83.889 67.414 81.7277C68.7785 80.8631 69.9382 80.5749 70.8933 80.8631C71.9167 81.1513 72.6671 81.7637 73.1447 82.7003C73.6904 83.6369 73.8269 84.6816 73.554 85.8343C73.3493 86.987 72.633 88.0317 71.405 88.9683C68.0621 91.4899 64.1735 93.3991 59.7391 94.696C55.3046 96.0648 50.4609 96.7493 45.2078 96.7493ZM41.5238 64.0043C44.1162 64.0043 46.4017 63.1758 48.3801 61.5187C50.4268 59.7896 51.9959 57.4481 53.0874 54.4942C54.2472 51.4683 54.8271 48.0101 54.8271 44.1196C54.8271 40.6614 54.1108 38.0677 52.6781 36.3386C51.2454 34.5375 49.0282 33.6369 46.0265 33.6369C43.434 33.6369 41.1145 34.4294 39.0678 36.0144C37.0212 37.5994 35.418 39.7968 34.2582 42.6066C33.0984 45.3444 32.5185 48.5504 32.5185 52.2248C32.5185 56.0432 33.3031 58.9611 34.8722 60.9784C36.4413 62.9957 38.6585 64.0043 41.5238 64.0043Z"/>
<path d="M155.44 91.67C156.259 93.3991 156.498 94.9481 156.157 96.317C155.884 97.6859 155.236 98.7666 154.212 99.5591C153.257 100.352 152.131 100.82 150.835 100.964C149.607 101.108 148.379 100.82 147.151 100.099C145.992 99.451 145.036 98.2983 144.286 96.6412L139.579 85.7262C138.692 83.7089 137.464 82.232 135.895 81.2954C134.326 80.4308 132.108 79.9986 129.243 79.9986L139.886 75.7839C142.819 75.8559 145.241 76.4683 147.151 77.621C149.062 78.7738 150.665 80.8271 151.961 83.781L155.44 91.67ZM130.676 79.9986C124.263 79.9986 118.669 78.7017 113.893 76.1081C109.118 73.5144 105.399 69.732 102.739 64.7608C100.146 59.7176 98.8502 53.6657 98.8502 46.6052C98.8502 40.121 99.703 34.1412 101.409 28.6657C103.182 23.1902 105.706 18.4352 108.981 14.4006C112.256 10.366 116.213 7.23198 120.852 4.99856C125.491 2.76513 130.744 1.64841 136.611 1.64841C143.092 1.64841 148.686 2.94524 153.394 5.5389C158.169 8.13256 161.853 11.915 164.446 16.8862C167.106 21.8573 168.437 27.8732 168.437 34.9337C168.437 41.4899 167.55 47.5058 165.776 52.9813C164.07 58.4568 161.58 63.2118 158.306 67.2464C155.031 71.281 151.074 74.415 146.435 76.6484C141.796 78.8818 136.543 79.9986 130.676 79.9986ZM130.88 68.1109C135.997 68.1109 140.329 66.706 143.877 63.8962C147.424 61.0144 150.119 57.0879 151.961 52.1167C153.803 47.1455 154.724 41.4899 154.724 35.1499C154.724 27.8732 153.087 22.4697 149.812 18.9395C146.537 15.3372 142.035 13.536 136.304 13.536C131.256 13.536 126.958 14.9409 123.41 17.7507C119.863 20.5605 117.168 24.451 115.326 29.4222C113.484 34.3213 112.563 39.9769 112.563 46.389C112.563 53.7377 114.2 59.2133 117.475 62.8156C120.749 66.3458 125.218 68.1109 130.88 68.1109Z"/>
<path d="M192.603 79.9986C189.056 79.9986 186.02 79.206 183.495 77.621C180.971 76.036 179.163 73.5864 178.072 70.2723C177.048 66.9582 176.912 62.7435 177.662 57.6282L181.653 31.4755C181.995 29.3141 182.745 27.7291 183.905 26.7205C185.065 25.7118 186.634 25.2075 188.612 25.2075C190.727 25.2075 192.262 25.8559 193.217 27.1527C194.24 28.3775 194.582 30.2147 194.24 32.6643L190.556 57.5202C190.011 61.4827 190.284 64.4366 191.375 66.3818C192.535 68.3271 194.65 69.2997 197.72 69.2997C201.54 69.2997 204.644 67.9669 207.032 65.3011C209.42 62.6354 210.955 58.9971 211.637 54.3862L215.014 31.4755C215.355 29.3141 216.106 27.7291 217.265 26.7205C218.425 25.7118 219.994 25.2075 221.973 25.2075C224.156 25.2075 225.725 25.8559 226.68 27.1527C227.635 28.4496 227.942 30.3228 227.601 32.7723L221.563 73.4063C220.949 77.6571 218.63 79.7824 214.605 79.7824C212.626 79.7824 211.159 79.206 210.204 78.0533C209.249 76.9006 208.908 75.1354 209.181 72.7579L210.204 64.9769L210.921 67.8948C209.147 71.8573 206.657 74.8833 203.45 76.9726C200.312 78.9899 196.696 79.9986 192.603 79.9986Z"/>
<path d="M240.198 79.7824C238.22 79.7824 236.753 79.098 235.798 77.7291C234.911 76.2882 234.638 74.3429 234.979 71.8934L241.017 31.9078C241.358 29.6743 242.143 28.0173 243.371 26.9366C244.599 25.7839 246.27 25.2075 248.385 25.2075C250.363 25.2075 251.796 25.8919 252.683 27.2608C253.638 28.6297 253.945 30.5749 253.604 33.0965L247.566 73.0821C247.225 75.3156 246.441 77.0086 245.213 78.1614C244.053 79.2421 242.381 79.7824 240.198 79.7824ZM250.022 15.2651C247.703 15.2651 245.963 14.6888 244.803 13.536C243.712 12.3112 243.268 10.6182 243.473 8.45677C243.746 6.0072 244.633 4.17003 246.134 2.94525C247.634 1.64842 249.647 1 252.171 1C254.491 1 256.23 1.61239 257.39 2.83717C258.55 3.98991 258.993 5.64697 258.72 7.80835C258.448 10.2579 257.561 12.1311 256.06 13.428C254.627 14.6527 252.615 15.2651 250.022 15.2651Z"/>
<path d="M285.008 79.9986C279.687 79.9986 275.252 78.9899 271.705 76.9726C268.225 74.9553 265.599 72.1455 263.825 68.5432C262.051 64.8689 261.164 60.6542 261.164 55.8991C261.164 52.0086 261.71 48.2262 262.802 44.5519C263.962 40.8055 265.701 37.4914 268.021 34.6095C270.34 31.6556 273.274 29.3141 276.821 27.585C280.437 25.8559 284.667 24.9914 289.511 24.9914C291.967 24.9914 294.389 25.3156 296.776 25.964C299.164 26.5403 301.279 27.3328 303.121 28.3415C304.485 29.134 305.406 30.0706 305.884 31.1513C306.43 32.1599 306.6 33.2046 306.396 34.2853C306.259 35.366 305.884 36.3026 305.27 37.0951C304.656 37.8876 303.871 38.428 302.916 38.7161C301.961 38.9323 300.938 38.7161 299.846 38.0677C298.277 37.1311 296.708 36.4827 295.139 36.1225C293.638 35.6902 292.035 35.4741 290.329 35.4741C287.396 35.4741 284.906 36.0504 282.859 37.2032C280.812 38.3559 279.141 39.9409 277.845 41.9582C276.617 43.9035 275.696 46.0648 275.082 48.4424C274.536 50.8199 274.263 53.2694 274.263 55.7911C274.263 59.8977 275.218 63.2118 277.128 65.7334C279.107 68.255 282.347 69.5158 286.85 69.5158C288.146 69.5158 289.511 69.3357 290.943 68.9755C292.444 68.6153 294.013 67.9669 295.651 67.0303C296.606 66.5259 297.527 66.3818 298.414 66.598C299.301 66.8141 300.051 67.3184 300.665 68.1109C301.279 68.8314 301.654 69.696 301.791 70.7046C301.995 71.6412 301.893 72.6138 301.484 73.6225C301.074 74.6311 300.256 75.5317 299.028 76.3242C297.254 77.4769 295.037 78.3775 292.376 79.0259C289.715 79.6743 287.259 79.9986 285.008 79.9986Z"/>
<path d="M314.652 79.7824C312.673 79.7824 311.207 79.098 310.251 77.7291C309.365 76.3602 309.092 74.451 309.433 72.0014L318.95 8.3487C319.291 6.11527 320.075 4.49424 321.303 3.48559C322.531 2.4049 324.203 1.86455 326.318 1.86455C328.296 1.86455 329.729 2.58501 330.616 4.02594C331.571 5.39481 331.878 7.34005 331.537 9.86167L325.704 48.5504H325.908L345.863 29.206C347.228 27.8372 348.422 26.8285 349.445 26.1801C350.537 25.5317 351.833 25.2075 353.334 25.2075C355.039 25.2075 356.267 25.7118 357.018 26.7205C357.836 27.7291 358.143 28.9899 357.939 30.5029C357.802 31.9438 357.086 33.3127 355.79 34.6095L335.732 54.4942V48.6585L352.003 70.2723C353.095 71.7133 353.572 73.1902 353.436 74.7032C353.368 76.1441 352.856 77.3689 351.901 78.3775C350.946 79.3141 349.65 79.7824 348.012 79.7824C346.239 79.7824 344.84 79.3862 343.817 78.5937C342.862 77.7291 341.702 76.4323 340.337 74.7032L324.987 54.8184H324.783L322.02 73.2983C321.406 77.621 318.95 79.7824 314.652 79.7824Z"/>
</mask>
<path d="M45.2078 96.7493C38.5903 96.7493 32.5867 95.6326 27.1972 93.3991C21.8077 91.2377 17.1345 88.0677 13.1776 83.889C9.28896 79.7824 6.2872 74.8833 4.17232 69.1916C2.05744 63.4279 1 57.0158 1 49.9553C1 42.6787 2.09155 36.0865 4.27465 30.1787C6.45775 24.2709 9.56185 19.1916 13.5869 14.9409C17.6803 10.6902 22.524 7.4121 28.1182 5.10663C33.7806 2.80115 40.057 1.64841 46.9475 1.64841C54.9976 1.64841 62.0245 3.3415 68.028 6.72766C74.0998 10.0418 78.8071 14.7248 82.15 20.7767C85.4928 26.7565 87.1643 33.817 87.1643 41.9582C87.1643 48.2262 86.3115 53.6657 84.6059 58.2767C82.9686 62.8156 80.6491 66.3458 77.6473 68.8674C74.7138 71.317 71.2345 72.5418 67.2094 72.5418C63.116 72.5418 59.9096 71.353 57.5901 68.9755C55.2705 66.5259 54.0766 63.1398 54.0084 58.817L57.0784 57.7363C55.3729 62.6354 52.951 66.3458 49.8128 68.8674C46.7428 71.317 43.3317 72.5418 39.5795 72.5418C34.19 72.5418 29.9602 70.7406 26.8902 67.1383C23.8884 63.536 22.3876 58.6009 22.3876 52.3328C22.3876 47.0735 23.3427 42.3905 25.2529 38.2839C27.1631 34.1772 29.7555 30.9352 33.0302 28.5576C36.3731 26.1801 40.1253 24.9914 44.2868 24.9914C47.9708 24.9914 50.9725 25.964 53.2921 27.9092C55.6116 29.7824 57.1807 32.5562 57.9994 36.2305H56.1574L57.1807 30.3948C57.7947 27.2968 59.5685 25.7478 62.502 25.7478C64.0712 25.7478 65.2309 26.2161 65.9814 27.1527C66.7318 28.0893 66.9365 29.4582 66.5954 31.2594L63.2184 52.1167C63.0137 53.2694 62.8432 54.3501 62.7067 55.3588C62.6385 56.2954 62.6044 57.1599 62.6044 57.9524C62.6044 60.1859 63.0478 61.8429 63.9347 62.9236C64.8216 64.0043 66.1519 64.5447 67.9257 64.5447C70.1088 64.5447 72.0531 63.6081 73.7587 61.7349C75.4642 59.8617 76.7945 57.232 77.7496 53.8458C78.7047 50.3876 79.1823 46.4251 79.1823 41.9582C79.1823 35.2579 77.852 29.5303 75.1913 24.7752C72.5989 20.0202 68.8808 16.3818 64.037 13.8602C59.2615 11.2666 53.5309 9.96974 46.8451 9.96974C39.4089 9.96974 32.9279 11.6268 27.4019 14.9409C21.8759 18.183 17.5779 22.7939 14.5079 28.7738C11.438 34.7536 9.90296 41.8141 9.90296 49.9553C9.90296 57.9524 11.3356 64.8329 14.2009 70.5965C17.1345 76.3602 21.2278 80.755 26.4809 83.781C31.8022 86.879 38.0445 88.4279 45.2078 88.4279C49.7104 88.4279 53.8038 87.8516 57.4877 86.6988C61.2399 85.5461 64.5487 83.889 67.414 81.7277C68.7785 80.8631 69.9382 80.5749 70.8933 80.8631C71.9167 81.1513 72.6671 81.7637 73.1447 82.7003C73.6904 83.6369 73.8269 84.6816 73.554 85.8343C73.3493 86.987 72.633 88.0317 71.405 88.9683C68.0621 91.4899 64.1735 93.3991 59.7391 94.696C55.3046 96.0648 50.4609 96.7493 45.2078 96.7493ZM41.5238 64.0043C44.1162 64.0043 46.4017 63.1758 48.3801 61.5187C50.4268 59.7896 51.9959 57.4481 53.0874 54.4942C54.2472 51.4683 54.8271 48.0101 54.8271 44.1196C54.8271 40.6614 54.1108 38.0677 52.6781 36.3386C51.2454 34.5375 49.0282 33.6369 46.0265 33.6369C43.434 33.6369 41.1145 34.4294 39.0678 36.0144C37.0212 37.5994 35.418 39.7968 34.2582 42.6066C33.0984 45.3444 32.5185 48.5504 32.5185 52.2248C32.5185 56.0432 33.3031 58.9611 34.8722 60.9784C36.4413 62.9957 38.6585 64.0043 41.5238 64.0043Z" stroke="white" stroke-opacity="0.17" stroke-width="2" mask="url(#path-1-outside-1_511_662)"/>
<path d="M155.44 91.67C156.259 93.3991 156.498 94.9481 156.157 96.317C155.884 97.6859 155.236 98.7666 154.212 99.5591C153.257 100.352 152.131 100.82 150.835 100.964C149.607 101.108 148.379 100.82 147.151 100.099C145.992 99.451 145.036 98.2983 144.286 96.6412L139.579 85.7262C138.692 83.7089 137.464 82.232 135.895 81.2954C134.326 80.4308 132.108 79.9986 129.243 79.9986L139.886 75.7839C142.819 75.8559 145.241 76.4683 147.151 77.621C149.062 78.7738 150.665 80.8271 151.961 83.781L155.44 91.67ZM130.676 79.9986C124.263 79.9986 118.669 78.7017 113.893 76.1081C109.118 73.5144 105.399 69.732 102.739 64.7608C100.146 59.7176 98.8502 53.6657 98.8502 46.6052C98.8502 40.121 99.703 34.1412 101.409 28.6657C103.182 23.1902 105.706 18.4352 108.981 14.4006C112.256 10.366 116.213 7.23198 120.852 4.99856C125.491 2.76513 130.744 1.64841 136.611 1.64841C143.092 1.64841 148.686 2.94524 153.394 5.5389C158.169 8.13256 161.853 11.915 164.446 16.8862C167.106 21.8573 168.437 27.8732 168.437 34.9337C168.437 41.4899 167.55 47.5058 165.776 52.9813C164.07 58.4568 161.58 63.2118 158.306 67.2464C155.031 71.281 151.074 74.415 146.435 76.6484C141.796 78.8818 136.543 79.9986 130.676 79.9986ZM130.88 68.1109C135.997 68.1109 140.329 66.706 143.877 63.8962C147.424 61.0144 150.119 57.0879 151.961 52.1167C153.803 47.1455 154.724 41.4899 154.724 35.1499C154.724 27.8732 153.087 22.4697 149.812 18.9395C146.537 15.3372 142.035 13.536 136.304 13.536C131.256 13.536 126.958 14.9409 123.41 17.7507C119.863 20.5605 117.168 24.451 115.326 29.4222C113.484 34.3213 112.563 39.9769 112.563 46.389C112.563 53.7377 114.2 59.2133 117.475 62.8156C120.749 66.3458 125.218 68.1109 130.88 68.1109Z" stroke="white" stroke-opacity="0.17" stroke-width="2" mask="url(#path-1-outside-1_511_662)"/>
<path d="M192.603 79.9986C189.056 79.9986 186.02 79.206 183.495 77.621C180.971 76.036 179.163 73.5864 178.072 70.2723C177.048 66.9582 176.912 62.7435 177.662 57.6282L181.653 31.4755C181.995 29.3141 182.745 27.7291 183.905 26.7205C185.065 25.7118 186.634 25.2075 188.612 25.2075C190.727 25.2075 192.262 25.8559 193.217 27.1527C194.24 28.3775 194.582 30.2147 194.24 32.6643L190.556 57.5202C190.011 61.4827 190.284 64.4366 191.375 66.3818C192.535 68.3271 194.65 69.2997 197.72 69.2997C201.54 69.2997 204.644 67.9669 207.032 65.3011C209.42 62.6354 210.955 58.9971 211.637 54.3862L215.014 31.4755C215.355 29.3141 216.106 27.7291 217.265 26.7205C218.425 25.7118 219.994 25.2075 221.973 25.2075C224.156 25.2075 225.725 25.8559 226.68 27.1527C227.635 28.4496 227.942 30.3228 227.601 32.7723L221.563 73.4063C220.949 77.6571 218.63 79.7824 214.605 79.7824C212.626 79.7824 211.159 79.206 210.204 78.0533C209.249 76.9006 208.908 75.1354 209.181 72.7579L210.204 64.9769L210.921 67.8948C209.147 71.8573 206.657 74.8833 203.45 76.9726C200.312 78.9899 196.696 79.9986 192.603 79.9986Z" stroke="white" stroke-opacity="0.17" stroke-width="2" mask="url(#path-1-outside-1_511_662)"/>
<path d="M240.198 79.7824C238.22 79.7824 236.753 79.098 235.798 77.7291C234.911 76.2882 234.638 74.3429 234.979 71.8934L241.017 31.9078C241.358 29.6743 242.143 28.0173 243.371 26.9366C244.599 25.7839 246.27 25.2075 248.385 25.2075C250.363 25.2075 251.796 25.8919 252.683 27.2608C253.638 28.6297 253.945 30.5749 253.604 33.0965L247.566 73.0821C247.225 75.3156 246.441 77.0086 245.213 78.1614C244.053 79.2421 242.381 79.7824 240.198 79.7824ZM250.022 15.2651C247.703 15.2651 245.963 14.6888 244.803 13.536C243.712 12.3112 243.268 10.6182 243.473 8.45677C243.746 6.0072 244.633 4.17003 246.134 2.94525C247.634 1.64842 249.647 1 252.171 1C254.491 1 256.23 1.61239 257.39 2.83717C258.55 3.98991 258.993 5.64697 258.72 7.80835C258.448 10.2579 257.561 12.1311 256.06 13.428C254.627 14.6527 252.615 15.2651 250.022 15.2651Z" stroke="white" stroke-opacity="0.17" stroke-width="2" mask="url(#path-1-outside-1_511_662)"/>
<path d="M285.008 79.9986C279.687 79.9986 275.252 78.9899 271.705 76.9726C268.225 74.9553 265.599 72.1455 263.825 68.5432C262.051 64.8689 261.164 60.6542 261.164 55.8991C261.164 52.0086 261.71 48.2262 262.802 44.5519C263.962 40.8055 265.701 37.4914 268.021 34.6095C270.34 31.6556 273.274 29.3141 276.821 27.585C280.437 25.8559 284.667 24.9914 289.511 24.9914C291.967 24.9914 294.389 25.3156 296.776 25.964C299.164 26.5403 301.279 27.3328 303.121 28.3415C304.485 29.134 305.406 30.0706 305.884 31.1513C306.43 32.1599 306.6 33.2046 306.396 34.2853C306.259 35.366 305.884 36.3026 305.27 37.0951C304.656 37.8876 303.871 38.428 302.916 38.7161C301.961 38.9323 300.938 38.7161 299.846 38.0677C298.277 37.1311 296.708 36.4827 295.139 36.1225C293.638 35.6902 292.035 35.4741 290.329 35.4741C287.396 35.4741 284.906 36.0504 282.859 37.2032C280.812 38.3559 279.141 39.9409 277.845 41.9582C276.617 43.9035 275.696 46.0648 275.082 48.4424C274.536 50.8199 274.263 53.2694 274.263 55.7911C274.263 59.8977 275.218 63.2118 277.128 65.7334C279.107 68.255 282.347 69.5158 286.85 69.5158C288.146 69.5158 289.511 69.3357 290.943 68.9755C292.444 68.6153 294.013 67.9669 295.651 67.0303C296.606 66.5259 297.527 66.3818 298.414 66.598C299.301 66.8141 300.051 67.3184 300.665 68.1109C301.279 68.8314 301.654 69.696 301.791 70.7046C301.995 71.6412 301.893 72.6138 301.484 73.6225C301.074 74.6311 300.256 75.5317 299.028 76.3242C297.254 77.4769 295.037 78.3775 292.376 79.0259C289.715 79.6743 287.259 79.9986 285.008 79.9986Z" stroke="white" stroke-opacity="0.17" stroke-width="2" mask="url(#path-1-outside-1_511_662)"/>
<path d="M314.652 79.7824C312.673 79.7824 311.207 79.098 310.251 77.7291C309.365 76.3602 309.092 74.451 309.433 72.0014L318.95 8.3487C319.291 6.11527 320.075 4.49424 321.303 3.48559C322.531 2.4049 324.203 1.86455 326.318 1.86455C328.296 1.86455 329.729 2.58501 330.616 4.02594C331.571 5.39481 331.878 7.34005 331.537 9.86167L325.704 48.5504H325.908L345.863 29.206C347.228 27.8372 348.422 26.8285 349.445 26.1801C350.537 25.5317 351.833 25.2075 353.334 25.2075C355.039 25.2075 356.267 25.7118 357.018 26.7205C357.836 27.7291 358.143 28.9899 357.939 30.5029C357.802 31.9438 357.086 33.3127 355.79 34.6095L335.732 54.4942V48.6585L352.003 70.2723C353.095 71.7133 353.572 73.1902 353.436 74.7032C353.368 76.1441 352.856 77.3689 351.901 78.3775C350.946 79.3141 349.65 79.7824 348.012 79.7824C346.239 79.7824 344.84 79.3862 343.817 78.5937C342.862 77.7291 341.702 76.4323 340.337 74.7032L324.987 54.8184H324.783L322.02 73.2983C321.406 77.621 318.95 79.7824 314.652 79.7824Z" stroke="white" stroke-opacity="0.17" stroke-width="2" mask="url(#path-1-outside-1_511_662)"/>
</g>
</svg>
