<svg width="21" height="21" viewBox="0 0 21 21" fill="none" xmlns="http://www.w3.org/2000/svg">
<path d="M5.7749 9.97237C5.7749 7.58712 5.7749 6.3945 6.51253 5.65337C7.25103 4.91225 8.4384 4.91225 10.8149 4.91225H13.3349C15.7105 4.91225 16.8979 4.91225 17.6364 5.65337C18.3749 6.3945 18.3749 7.58712 18.3749 9.97237V14.1899C18.3749 16.5751 18.3749 17.7677 17.6364 18.5089C16.8988 19.25 15.7105 19.25 13.3349 19.25H10.8149C8.4384 19.25 7.25103 19.25 6.51253 18.5089C5.7749 17.7677 5.7749 16.5751 5.7749 14.1899V9.97237Z" fill="white"/>
<path opacity="0.5" d="M3.6505 2.7755C2.625 3.80012 2.625 5.45038 2.625 8.75V10.5C2.625 13.7996 2.625 15.4499 3.6505 16.4745C4.19037 17.0152 4.90437 17.2707 5.943 17.3915C5.775 16.6565 5.775 15.645 5.775 14.189V9.97237C5.775 7.58713 5.775 6.3945 6.51262 5.65337C7.25112 4.91225 8.4385 4.91225 10.815 4.91225H13.335C14.7805 4.91225 15.785 4.91225 16.5183 5.0785C16.3975 4.03463 16.142 3.318 15.5995 2.7755C14.5749 1.75 12.9246 1.75 9.625 1.75C6.32538 1.75 4.67512 1.75 3.6505 2.7755Z" fill="white"/>
</svg>
