<svg width="60" height="60" viewBox="0 0 60 60" fill="none" xmlns="http://www.w3.org/2000/svg">
<g clip-path="url(#clip0_73_745)">
<path d="M51.255 11.3599L26.2501 2.43075V1.87497C26.2501 0.8386 25.4115 0 24.3751 0C23.3388 0 22.5002 0.8386 22.5002 1.87497C22.5002 1.87497 22.4999 3.85681 22.5002 3.86094V50.625C22.5002 51.6614 23.3388 52.5 24.3751 52.5C25.4115 52.5 26.2501 51.6614 26.2501 50.625V48.75C36.092 48.75 41.2501 51.5369 41.2501 52.5C41.2501 53.4632 36.0921 56.2499 26.2501 56.2499C16.4081 56.2499 11.2501 53.4632 11.2501 52.5C11.2501 51.8246 13.8405 50.2673 18.7501 49.3883V45.5673C12.5519 46.5388 7.50012 48.7874 7.50012 52.5C7.50012 57.6526 17.2194 60 26.2501 60C35.2808 60 45.0001 57.6526 45.0001 52.5C45.0001 47.3474 35.2808 45 26.2501 45V27.4091L51.4637 14.8023C52.1357 14.4654 52.5421 13.7622 52.4965 13.0115C52.4507 12.2625 51.9636 11.6125 51.255 11.3599ZM26.2501 23.2159V6.41094L45.857 13.4124L26.2501 23.2159Z" fill="white" fill-opacity="0.1"/>
</g>
<defs>
<clipPath id="clip0_73_745">
<rect width="60" height="60" fill="white"/>
</clipPath>
</defs>
</svg>
