<svg width="48" height="48" viewBox="0 0 48 48" fill="none" xmlns="http://www.w3.org/2000/svg">
<path opacity="0.5" d="M4 24C4 14.572 4 9.858 6.928 6.928C9.86 4 14.572 4 24 4C33.428 4 38.142 4 41.07 6.928C44 9.86 44 14.572 44 24C44 33.428 44 38.142 41.07 41.07C38.144 44 33.428 44 24 44C14.572 44 9.858 44 6.928 41.07C4 38.144 4 33.428 4 24Z" fill="url(#paint0_linear_72_39)"/>
<path fill-rule="evenodd" clip-rule="evenodd" d="M13.828 22.5H4V25.5H20.326C19.988 26.9237 19.1796 28.1917 18.0317 29.099C16.8837 30.0064 15.4632 30.5 14 30.5C13.6022 30.5 13.2206 30.658 12.9393 30.9393C12.658 31.2206 12.5 31.6022 12.5 32C12.5 32.3978 12.658 32.7794 12.9393 33.0607C13.2206 33.342 13.6022 33.5 14 33.5C15.7648 33.5005 17.4949 33.0094 18.9962 32.0817C20.4976 31.1541 21.7108 29.8265 22.5 28.248V44H25.5V28.248C26.2892 29.8265 27.5024 31.1541 29.0038 32.0817C30.5051 33.0094 32.2352 33.5005 34 33.5C34.3978 33.5 34.7794 33.342 35.0607 33.0607C35.342 32.7794 35.5 32.3978 35.5 32C35.5 31.6022 35.342 31.2206 35.0607 30.9393C34.7794 30.658 34.3978 30.5 34 30.5C32.5368 30.5 31.1163 30.0064 29.9683 29.099C28.8204 28.1917 28.012 26.9237 27.674 25.5H44V22.5H34.174C34.874 21.624 35.4 20.59 35.686 19.446C36.762 15.14 32.86 11.24 28.554 12.316C27.4389 12.594 26.3972 13.1098 25.5 13.828V4H22.5V13.828C21.6028 13.1098 20.5611 12.594 19.446 12.316C15.14 11.24 11.24 15.14 12.316 19.446C12.602 20.59 13.126 21.624 13.828 22.5ZM22.5 22.5H19.994C18.8936 22.4831 17.8296 22.1031 16.9674 21.4192C16.1051 20.7353 15.493 19.7857 15.226 18.718C15.1054 18.2354 15.1118 17.7298 15.2447 17.2504C15.3775 16.771 15.6323 16.3342 15.9842 15.9826C16.336 15.6309 16.7729 15.3764 17.2524 15.2438C17.7318 15.1112 18.2375 15.1051 18.72 15.226C19.7877 15.493 20.7373 16.1051 21.4212 16.9674C22.1051 17.8296 22.4851 18.8936 22.502 19.994V22.5H22.5ZM28.006 22.5H25.5V20.01C25.5134 18.9068 25.8918 17.8392 26.576 16.9737C27.2602 16.1082 28.2117 15.4937 29.282 15.226C29.7644 15.1055 30.2698 15.112 30.7489 15.2448C31.2281 15.3776 31.6647 15.6321 32.0163 15.9837C32.3679 16.3353 32.6224 16.7719 32.7552 17.2511C32.888 17.7302 32.8945 18.2356 32.774 18.718C32.507 19.7857 31.8949 20.7353 31.0326 21.4192C30.1704 22.1031 29.1064 22.4831 28.006 22.5Z" fill="url(#paint1_linear_72_39)"/>
<defs>
<linearGradient id="paint0_linear_72_39" x1="4" y1="24" x2="44" y2="24" gradientUnits="userSpaceOnUse">
<stop stop-color="#12C2E9"/>
<stop offset="0.5" stop-color="#C471ED"/>
<stop offset="1" stop-color="#F64F59"/>
</linearGradient>
<linearGradient id="paint1_linear_72_39" x1="4" y1="24" x2="44" y2="24" gradientUnits="userSpaceOnUse">
<stop stop-color="#12C2E9"/>
<stop offset="0.5" stop-color="#C471ED"/>
<stop offset="1" stop-color="#F64F59"/>
</linearGradient>
</defs>
</svg>
