<svg width="96" height="96" viewBox="0 0 96 96" fill="none" xmlns="http://www.w3.org/2000/svg">
<path fill-rule="evenodd" clip-rule="evenodd" d="M23.1465 95.5177C22.1284 95.5177 21.1257 95.4515 20.1425 95.3233C19.9769 95.3017 19.8119 95.2783 19.6474 95.2532C19.4823 95.228 19.3178 95.2011 19.1539 95.1724C19.2356 94.6362 19.7314 94.2612 20.2718 94.3317C21.2122 94.4543 22.1717 94.5177 23.1465 94.5177H26.2414C26.7936 94.5177 27.2414 94.9654 27.2414 95.5177H23.1465ZM39.6208 95.5177C39.6208 94.9654 39.1731 94.5177 38.6208 94.5177H32.4311C31.8788 94.5177 31.4311 94.9654 31.4311 95.5177H39.6208ZM52.0002 95.5177C52.0002 94.9654 51.5525 94.5177 51.0002 94.5177H44.8105C44.2582 94.5177 43.8105 94.9654 43.8105 95.5177H52.0002ZM64.3796 95.5177C64.3796 94.9654 63.9319 94.5177 63.3796 94.5177H57.1899C56.6376 94.5177 56.1899 94.9654 56.1899 95.5177H64.3796ZM76.6567 95.1724C76.5751 94.6362 76.0793 94.2612 75.5388 94.3317C74.5984 94.4543 73.6389 94.5177 72.6642 94.5177H69.5693C69.017 94.5177 68.5693 94.9654 68.5693 95.5177H72.6642C73.6823 95.5177 74.685 95.4515 75.6682 95.3233C75.8338 95.3017 75.9988 95.2783 76.1632 95.2532C76.3283 95.228 76.4928 95.2011 76.6567 95.1724ZM87.4458 90.1395C87.1062 89.7165 86.4891 89.6408 86.0569 89.9729C84.5427 91.1365 82.8732 92.1072 81.0852 92.8487C80.5818 93.0574 80.3395 93.6299 80.5364 94.1352C80.6932 94.078 80.8492 94.0193 81.0044 93.9589C81.1598 93.8984 81.3145 93.8362 81.4683 93.7724C83.3381 92.997 85.0835 91.9821 86.6662 90.7659C86.7984 90.6643 86.9294 90.5613 87.0593 90.4569C87.1893 90.3525 87.3181 90.2467 87.4458 90.1395ZM94.2817 80.3899C93.7764 80.193 93.2039 80.4353 92.9952 80.9387C92.2537 82.7267 91.283 84.3962 90.1194 85.9104C89.7873 86.3426 89.863 86.9597 90.286 87.2992C90.3932 87.1716 90.499 87.0428 90.6034 86.9128C90.7078 86.7829 90.8108 86.6519 90.9124 86.5197C92.1286 84.937 93.1435 83.1916 93.9189 81.3218C93.9827 81.168 94.0449 81.0133 94.1054 80.8578C94.1658 80.7027 94.2245 80.5467 94.2817 80.3899ZM95.6642 68.4228C95.1119 68.4228 94.6642 68.8705 94.6642 69.4228V72.5177C94.6642 73.4924 94.6008 74.4519 94.4782 75.3923C94.4077 75.9328 94.7827 76.4286 95.3189 76.5102C95.3475 76.3463 95.3745 76.1818 95.3997 76.0167C95.4248 75.8523 95.4482 75.6873 95.4698 75.5217C95.598 74.5385 95.6642 73.5358 95.6642 72.5177V68.4228ZM95.6642 56.0434C95.1119 56.0434 94.6642 56.4911 94.6642 57.0434V63.2331C94.6642 63.7854 95.1119 64.2331 95.6642 64.2331V56.0434ZM95.6642 43.664C95.1119 43.664 94.6642 44.1117 94.6642 44.664V50.8537C94.6642 51.406 95.1119 51.8537 95.6642 51.8537V43.664ZM95.6642 31.2846C95.1119 31.2846 94.6642 31.7323 94.6642 32.2846V38.4743C94.6642 39.0266 95.1119 39.4743 95.6642 39.4743V31.2846ZM95.3189 19.0074C94.7827 19.089 94.4077 19.5849 94.4782 20.1253C94.6008 21.0657 94.6642 22.0252 94.6642 23V26.0949C94.6642 26.6471 95.1119 27.0949 95.6642 27.0949V23C95.6642 21.9819 95.598 20.9792 95.4698 19.996C95.4482 19.8304 95.4248 19.6654 95.3997 19.5009C95.3745 19.3358 95.3475 19.1713 95.3189 19.0074ZM90.286 8.21841C89.863 8.55797 89.7873 9.1751 90.1194 9.60729C91.283 11.1215 92.2537 12.7909 92.9952 14.5789C93.2039 15.0823 93.7764 15.3247 94.2816 15.1278C94.2245 14.971 94.1658 14.815 94.1054 14.6598C94.0448 14.5043 93.9827 14.3497 93.9189 14.1959C93.1435 12.326 92.1286 10.5806 90.9123 8.99796C90.8108 8.86577 90.7078 8.73472 90.6034 8.60482C90.499 8.47485 90.3932 8.34604 90.286 8.21841ZM80.5364 1.38251C80.3394 1.88779 80.5818 2.46023 81.0852 2.66898C82.8732 3.41043 84.5427 4.38115 86.0569 5.54473C86.489 5.87685 87.1062 5.80114 87.4457 5.37816C87.3181 5.27098 87.1893 5.16517 87.0593 5.06075C86.9294 4.95638 86.7984 4.85339 86.6662 4.75181C85.0835 3.53559 83.3381 2.52065 81.4683 1.74525C81.3145 1.68147 81.1598 1.61931 81.0043 1.55879C80.8492 1.49839 80.6932 1.43962 80.5364 1.38251ZM68.5693 0C68.5693 0.552285 69.017 1 69.5693 1H72.6641C73.6389 1 74.5984 1.06333 75.5388 1.186C76.0792 1.2565 76.5751 0.881482 76.6567 0.345299C76.4928 0.316612 76.3283 0.289661 76.1632 0.264464C75.9988 0.239362 75.8337 0.216002 75.6682 0.194403C74.685 0.066156 73.6823 0 72.6641 0H68.5693ZM56.1899 0C56.1899 0.552285 56.6376 1 57.1899 1H63.3796C63.9319 1 64.3796 0.552285 64.3796 0H56.1899ZM43.8105 0C43.8105 0.552285 44.2582 1 44.8105 1H51.0002C51.5524 1 52.0002 0.552285 52.0002 0H43.8105ZM31.431 0C31.431 0.552285 31.8788 1 32.431 1H38.6208C39.173 1 39.6208 0.552285 39.6208 0H31.431ZM27.2413 0C27.2413 0.552285 26.7936 1 26.2413 1H23.1465C22.1717 1 21.2122 1.06333 20.2718 1.186C19.7314 1.2565 19.2355 0.881482 19.1539 0.3453C19.3178 0.316612 19.4823 0.289661 19.6474 0.264464C19.8119 0.239362 19.9769 0.216001 20.1425 0.194403C21.1256 0.0661556 22.1283 0 23.1465 0H27.2413ZM8.36489 5.37817C8.70446 5.80115 9.32159 5.87686 9.75377 5.54474C11.2679 4.38116 12.9374 3.41044 14.7254 2.66898C15.2288 2.46023 15.4712 1.88779 15.2743 1.38251C15.1175 1.43962 14.9615 1.49839 14.8063 1.55879C14.6508 1.61931 14.4962 1.68147 14.3424 1.74526C12.4725 2.52065 10.7271 3.5356 9.14445 4.75182C9.01226 4.8534 8.8812 4.95639 8.75131 5.06076C8.62134 5.16519 8.49252 5.271 8.36489 5.37817ZM1.52899 15.1278C2.03427 15.3247 2.60671 15.0824 2.81546 14.579C3.55692 12.7909 4.52763 11.1215 5.69122 9.60731C6.02333 9.17512 5.94762 8.55799 5.52464 8.21843C5.41747 8.34606 5.31166 8.47487 5.20723 8.60484C5.10286 8.73474 4.99988 8.86579 4.8983 8.99798C3.68208 10.5807 2.66713 12.3261 1.89174 14.1959C1.82795 14.3497 1.76579 14.5044 1.70527 14.6598C1.64487 14.815 1.5861 14.971 1.52899 15.1278ZM0.146484 27.0949C0.698769 27.0949 1.14648 26.6472 1.14648 26.0949V23C1.14648 22.0252 1.20982 21.0658 1.33249 20.1254C1.40298 19.5849 1.02797 19.0891 0.491783 19.0075C0.463096 19.1714 0.436145 19.3359 0.410948 19.5009C0.385847 19.6654 0.362486 19.8304 0.340887 19.996C0.21264 20.9792 0.146484 21.9819 0.146484 23V27.0949ZM0.146484 39.4743C0.698769 39.4743 1.14648 39.0266 1.14648 38.4743V32.2846C1.14648 31.7323 0.698769 31.2846 0.146484 31.2846V39.4743ZM0.146484 51.8537C0.698769 51.8537 1.14648 51.406 1.14648 50.8537V44.664C1.14648 44.1117 0.698769 43.664 0.146484 43.664V51.8537ZM0.146484 64.2331C0.698769 64.2331 1.14648 63.7854 1.14648 63.2331V57.0434C1.14648 56.4911 0.698769 56.0434 0.146484 56.0434V64.2331ZM0.491784 76.5102C1.02797 76.4286 1.40298 75.9328 1.33249 75.3923C1.20982 74.4519 1.14648 73.4925 1.14648 72.5177V69.4228C1.14648 68.8705 0.698769 68.4228 0.146484 68.4228V72.5177C0.146484 73.5358 0.21264 74.5385 0.340888 75.5217C0.362486 75.6873 0.385847 75.8523 0.410949 76.0168C0.436146 76.1818 0.463097 76.3463 0.491784 76.5102ZM5.52466 87.2993C5.94763 86.9597 6.02334 86.3426 5.69123 85.9104C4.52764 84.3962 3.55692 82.7267 2.81547 80.9387C2.60671 80.4353 2.03428 80.193 1.529 80.3899C1.58611 80.5467 1.64488 80.7027 1.70528 80.8579C1.7658 81.0133 1.82796 81.168 1.89174 81.3218C2.66714 83.1916 3.68209 84.937 4.89831 86.5197C4.99989 86.6519 5.10288 86.783 5.20724 86.9129C5.31167 87.0428 5.41748 87.1716 5.52466 87.2993ZM15.2743 94.1352C15.4712 93.6299 15.2288 93.0575 14.7254 92.8487C12.9374 92.1072 11.268 91.1365 9.75379 89.9729C9.32161 89.6408 8.70447 89.7165 8.36491 90.1395C8.49254 90.2467 8.62135 90.3525 8.75132 90.4569C8.88122 90.5613 9.01228 90.6643 9.14446 90.7659C10.7271 91.9821 12.4725 92.997 14.3424 93.7724C14.4962 93.8362 14.6508 93.8984 14.8063 93.9589C14.9615 94.0193 15.1175 94.0781 15.2743 94.1352Z" fill="url(#paint0_linear_508_577)"/>
<defs>
<linearGradient id="paint0_linear_508_577" x1="0.146484" y1="47.7588" x2="95.6642" y2="47.7588" gradientUnits="userSpaceOnUse">
<stop stop-color="#12C2E9"/>
<stop offset="0.5" stop-color="#C471ED"/>
<stop offset="1" stop-color="#F64F59"/>
</linearGradient>
</defs>
</svg>
