<svg width="60" height="60" viewBox="0 0 60 60" fill="none" xmlns="http://www.w3.org/2000/svg">
<path fill-rule="evenodd" clip-rule="evenodd" d="M30 8.75C18.2639 8.75 8.75 18.2639 8.75 30C8.75 41.736 18.2639 51.25 30 51.25C41.736 51.25 51.25 41.736 51.25 30C51.25 18.2639 41.736 8.75 30 8.75ZM5 30C5 16.1929 16.1929 5 30 5C43.807 5 55 16.1929 55 30C55 43.807 43.807 55 30 55C16.1929 55 5 43.807 5 30ZM38.8257 23.6742C39.558 24.4064 39.558 25.5935 38.8257 26.3257L28.8257 36.3257C28.0935 37.058 26.9065 37.058 26.1742 36.3257L21.1742 31.3257C20.4419 30.5935 20.4419 29.4065 21.1742 28.6742C21.9064 27.942 23.0936 27.942 23.8258 28.6742L27.5 32.3482L36.1742 23.6742C36.9065 22.9419 38.0935 22.9419 38.8257 23.6742Z" fill="white" fill-opacity="0.14"/>
</svg>
