<svg width="46" height="51" viewBox="0 0 46 51" fill="none" xmlns="http://www.w3.org/2000/svg">
<path d="M41.75 10.5L27 2C24.5 0.5 21.5 0.5 19.25 2L4.25 10.5C1.75 12 0.25 14.5 0.25 17.25V34.5C0.25 37.25 1.75 40 4.25 41.25L19 49.75C20.25 50.5 21.5 50.75 23 50.75C24.5 50.75 25.75 50.5 27 49.75L41.75 41.25C44.25 39.75 45.75 37.25 45.75 34.5V17.5C45.75 14.75 44.25 12 41.75 10.5ZM21 5.25C21.75 5 22.25 4.75 23 4.75C23.75 4.75 24.5 5 25 5.25L39.25 13.5L33.25 17.25L17.75 7L21 5.25ZM14.25 9.25L30 19.5L23 23.75L6 13.75L14.25 9.25ZM6 38.25C4.75 37.5 4 36.25 4 34.75V17.5C4 17.25 4 17.25 4 17L21 27V46.75C21 46.75 21 46.75 20.75 46.75L6 38.25ZM25 46.75L24.75 27L31 23V43L25 46.75ZM42 34.5C42 36 41.25 37.25 40 38L35 40.75V20.75L41.75 16.5C41.75 16.75 42 17.25 42 17.5V34.5Z" fill="white" fill-opacity="0.16"/>
</svg>
