<svg width="19" height="19" viewBox="0 0 19 19" fill="none" xmlns="http://www.w3.org/2000/svg">
<g opacity="0.6">
<circle cx="9.5" cy="9.5" r="9.5" fill="white" fill-opacity="0.1"/>
<path d="M9.69 10.9535C9.60133 10.9535 9.53167 10.925 9.481 10.868C9.43033 10.811 9.405 10.7287 9.405 10.621C9.405 10.4057 9.43033 10.203 9.481 10.013C9.53167 9.823 9.614 9.633 9.728 9.443C9.84833 9.24667 10.0067 9.0345 10.203 8.8065C10.355 8.62917 10.4753 8.47083 10.564 8.3315C10.659 8.19217 10.7255 8.05917 10.7635 7.9325C10.8078 7.7995 10.83 7.66333 10.83 7.524C10.83 7.27067 10.7382 7.07117 10.5545 6.9255C10.3772 6.7735 10.127 6.6975 9.804 6.6975C9.519 6.6975 9.25617 6.74183 9.0155 6.8305C8.78117 6.91283 8.55317 7.03 8.3315 7.182C8.23017 7.25167 8.13517 7.2865 8.0465 7.2865C7.95783 7.2865 7.885 7.26117 7.828 7.2105C7.77733 7.15983 7.7425 7.0965 7.7235 7.0205C7.71083 6.9445 7.7235 6.86533 7.7615 6.783C7.7995 6.69433 7.866 6.61517 7.961 6.5455C8.21433 6.3555 8.50883 6.20667 8.8445 6.099C9.18017 5.99133 9.51267 5.9375 9.842 5.9375C10.2157 5.9375 10.5418 6.00083 10.8205 6.1275C11.0992 6.25417 11.3177 6.4315 11.476 6.6595C11.6343 6.88117 11.7135 7.144 11.7135 7.448C11.7135 7.65067 11.685 7.84067 11.628 8.018C11.571 8.19533 11.4792 8.37583 11.3525 8.5595C11.2258 8.74317 11.0548 8.94583 10.8395 9.1675C10.6432 9.37017 10.4817 9.557 10.355 9.728C10.2347 9.89267 10.146 10.051 10.089 10.203C10.0383 10.355 10.0035 10.5197 9.9845 10.697C9.97817 10.773 9.94967 10.8363 9.899 10.887C9.84833 10.9313 9.77867 10.9535 9.69 10.9535ZM9.6805 12.7585C9.5095 12.7585 9.37017 12.7047 9.2625 12.597C9.16117 12.4893 9.1105 12.3532 9.1105 12.1885C9.1105 12.0238 9.16117 11.8908 9.2625 11.7895C9.37017 11.6882 9.5095 11.6375 9.6805 11.6375C9.8515 11.6375 9.98767 11.6882 10.089 11.7895C10.1903 11.8908 10.241 12.0238 10.241 12.1885C10.241 12.3532 10.1903 12.4893 10.089 12.597C9.98767 12.7047 9.8515 12.7585 9.6805 12.7585Z" fill="white"/>
</g>
</svg>
