<svg width="15" height="15" viewBox="0 0 15 15" fill="none" xmlns="http://www.w3.org/2000/svg">
<path d="M11.3191 13.1089C11.5258 13.4405 11.969 13.5363 12.2705 13.2875C13.9375 11.9119 15 9.83004 15 7.5C15 3.35786 11.6421 0 7.5 0C3.35786 0 0 3.35786 0 7.5C0 11.6421 3.35786 15 7.5 15C7.7319 15 7.96135 14.9895 8.18789 14.9689C8.99134 14.8958 9.3353 13.992 8.91488 13.3035C8.78546 13.1039 8.61623 12.9542 8.40718 12.8544C8.20806 12.7646 7.94922 12.7197 7.63066 12.7197C6.60148 12.7175 5.69557 12.493 4.91289 12.046C4.13639 11.587 3.52911 10.9482 3.09108 10.1299C2.66301 9.31157 2.44898 8.3585 2.44898 7.27071C2.44898 6.44239 2.56845 5.6989 2.80736 5.04024C3.05625 4.37159 3.40965 3.80275 3.8676 3.3337C4.32553 2.85467 4.87307 2.48542 5.5102 2.22595C6.1573 1.96647 6.86909 1.83673 7.64559 1.83673C8.70085 1.83673 9.61672 2.06128 10.3932 2.51037C11.1697 2.95946 11.772 3.59317 12.2001 4.41151C12.6381 5.21987 12.8571 6.16794 12.8571 7.25574C12.8571 8.08406 12.7327 8.83254 12.4838 9.50118C12.2349 10.1698 11.8815 10.7437 11.4236 11.2227C11.1467 11.5123 10.8371 11.7618 10.4947 11.9712C10.3832 12.0394 10.3983 12.2223 10.5127 12.2855C10.8114 12.4452 11.0801 12.7197 11.3191 13.1089Z" fill="url(#paint0_linear_17_1747)"/>
<path d="M9.13887 10.3395C8.73071 10.6089 8.23295 10.7437 7.64559 10.7437C6.76954 10.7437 6.0876 10.4393 5.59979 9.83051C5.11199 9.21177 4.8681 8.3585 4.8681 7.27071C4.8681 6.54219 4.97761 5.91845 5.19661 5.3995C5.41562 4.88056 5.73419 4.48636 6.15231 4.21691C6.57044 3.94745 7.06819 3.81272 7.64559 3.81272C8.53161 3.81272 9.21852 4.11711 9.70633 4.72587C10.1941 5.32466 10.438 6.17293 10.438 7.27071C10.438 7.98925 10.3235 8.61299 10.0946 9.14191C9.87557 9.66086 9.557 10.06 9.13887 10.3395Z" fill="url(#paint1_linear_17_1747)"/>
<defs>
<linearGradient id="paint0_linear_17_1747" x1="0" y1="7.5" x2="15" y2="7.5" gradientUnits="userSpaceOnUse">
<stop stop-color="#12C2E9"/>
<stop offset="0.5" stop-color="#C471ED"/>
<stop offset="1" stop-color="#F64F59"/>
</linearGradient>
<linearGradient id="paint1_linear_17_1747" x1="0" y1="7.5" x2="15" y2="7.5" gradientUnits="userSpaceOnUse">
<stop stop-color="#12C2E9"/>
<stop offset="0.5" stop-color="#C471ED"/>
<stop offset="1" stop-color="#F64F59"/>
</linearGradient>
</defs>
</svg>
