<svg width="19" height="19" viewBox="0 0 19 19" fill="none" xmlns="http://www.w3.org/2000/svg">
<path d="M14.3375 16.6046C14.5994 17.0247 15.1608 17.146 15.5426 16.8309C17.6541 15.0884 19 12.4514 19 9.5C19 4.2533 14.7467 0 9.5 0C4.25328 0 0 4.2533 0 9.5C0 14.7467 4.25328 19 9.5 19C9.79375 19 10.0844 18.9867 10.3713 18.9606C11.389 18.868 11.8247 17.7232 11.2922 16.8511C11.1282 16.5982 10.9139 16.4086 10.6491 16.2822C10.3969 16.1684 10.069 16.1116 9.6655 16.1116C8.36187 16.1088 7.21439 15.8244 6.22299 15.2583C5.23943 14.6768 4.47021 13.8678 3.91537 12.8312C3.37314 11.7947 3.10204 10.5874 3.10204 9.20956C3.10204 8.16036 3.25337 7.2186 3.55599 6.3843C3.87126 5.53735 4.31889 4.81681 4.89896 4.22268C5.479 3.61592 6.17256 3.1482 6.97959 2.81953C7.79924 2.49087 8.70085 2.32653 9.68441 2.32653C11.0211 2.32653 12.1812 2.61095 13.1648 3.1798C14.1483 3.74864 14.9112 4.55135 15.4535 5.58791C16.0083 6.61184 16.2857 7.81273 16.2857 9.19061C16.2857 10.2398 16.1281 11.1879 15.8129 12.0348C15.4976 12.8818 15.0499 13.6086 14.4699 14.2154C14.1192 14.5823 13.727 14.8983 13.2932 15.1635C13.152 15.2499 13.1712 15.4816 13.3161 15.5617C13.6944 15.7639 14.0348 16.1116 14.3375 16.6046Z" fill="white"/>
<path d="M11.5759 13.0967C11.0589 13.438 10.4284 13.6086 9.68441 13.6086C8.57475 13.6086 7.71096 13.2231 7.09307 12.452C6.47518 11.6682 6.16626 10.5874 6.16626 9.20956C6.16626 8.28677 6.30497 7.49671 6.58237 6.83937C6.85979 6.18204 7.26331 5.68272 7.79292 5.34141C8.32256 5.0001 8.95304 4.82945 9.68441 4.82945C10.8067 4.82945 11.6768 5.215 12.2947 5.98611C12.9126 6.74456 13.2215 7.81905 13.2215 9.20956C13.2215 10.1197 13.0765 10.9098 12.7865 11.5798C12.5091 12.2371 12.1055 12.7427 11.5759 13.0967Z" fill="white"/>
</svg>
